<svg xmlns="http://www.w3.org/2000/svg" viewBox="0 0 76.78 76.78"><defs><style>.cls-1{fill:#4a4d4f;}</style></defs><title>Asset 3</title><g id="Layer_2" data-name="Layer 2"><g id="Layer_1-2" data-name="Layer 1"><path class="cls-1" d="M75.33,6.58V70.19a5.14,5.14,0,0,1-5.14,5.14H6.58a5.14,5.14,0,0,1-5.14-5.14V6.58A5.14,5.14,0,0,1,6.58,1.44H70.19A5.14,5.14,0,0,1,75.33,6.58ZM70.47,0H6.3A6.3,6.3,0,0,0,0,6.3V70.47a6.3,6.3,0,0,0,6.3,6.3H70.47a6.3,6.3,0,0,0,6.3-6.3V6.3A6.3,6.3,0,0,0,70.47,0Z"/></g></g></svg>