<svg xmlns="http://www.w3.org/2000/svg" viewBox="0 0 74.8 74.8"><defs><style>.cls-1{fill:#4a4d4f;}</style></defs><title>Asset 1</title><g id="Layer_2" data-name="Layer 2"><g id="Layer_2-2" data-name="Layer 2"><path class="cls-1" d="M71.58,3.22h0A11,11,0,0,0,56,3.22L40.29,19a4.08,4.08,0,0,1-5.78,0L18.78,3.22a11,11,0,0,0-15.56,0h0a11,11,0,0,0,0,15.56L19,34.51a4.08,4.08,0,0,1,0,5.78L3.22,56a11,11,0,0,0,0,15.56h0a11,11,0,0,0,15.56,0L34.51,55.84a4.08,4.08,0,0,1,5.78,0L56,71.58a11,11,0,0,0,15.56,0h0a11,11,0,0,0,0-15.56L55.84,40.29a4.08,4.08,0,0,1,0-5.78L71.58,18.78A11,11,0,0,0,71.58,3.22Z"/></g></g></svg>